<?xml version="1.0" encoding="iso-8859-1"?>
<!-- Generator: Adobe Illustrator 16.0.0, SVG Export Plug-In . SVG Version: 6.00 Build 0)  -->
<!DOCTYPE svg PUBLIC "-//W3C//DTD SVG 1.1//EN" "http://www.w3.org/Graphics/SVG/1.1/DTD/svg11.dtd">
<svg version="1.1" id="Capa_1" xmlns="http://www.w3.org/2000/svg" xmlns:xlink="http://www.w3.org/1999/xlink" x="0px" y="0px"
	 width="53.24px" height="53.24px" viewBox="0 0 53.24 53.24" style="enable-background:new 0 0 53.24 53.24;" xml:space="preserve"
	>
<g>
	<g>
		<path d="M26.62,0C11.918,0,0,11.918,0,26.62c0,14.702,11.918,26.62,26.62,26.62s26.62-11.918,26.62-26.62
			C53.24,11.918,41.322,0,26.62,0z M26.37,6.682c6.983,0,12.667,5.682,12.667,12.666S33.354,32.014,26.37,32.014
			c-6.984,0-12.667-5.682-12.667-12.666S19.386,6.682,26.37,6.682z M40.43,30.038V27.62c0-0.553,0.448-1,1-1c0.553,0,1,0.447,1,1
			v3.418c0,0.554-0.447,1-1,1h-3.369c-0.553,0-1-0.446-1-1c0-0.553,0.447-1,1-1H40.43z M10.31,7.954c0-0.553,0.448-1,1-1h3.369
			c0.552,0,1,0.447,1,1c0,0.553-0.448,1-1,1H12.31v2.418c0,0.553-0.448,1-1,1c-0.552,0-1-0.447-1-1V7.954z M10.287,27.942
			c0-0.554,0.448-1,1-1c0.552,0,1,0.446,1,1v2.368h2.417c0.552,0,1,0.447,1,1c0,0.554-0.448,1-1,1h-3.417c-0.552,0-1-0.446-1-1
			V27.942z M42.453,45.245c0,0.554-0.448,1-1,1H11.287c-0.552,0-1-0.446-1-1v-6.5c0-3.423,2.66-6.208,5.929-6.208
			c0.902,0,1.78,0.223,2.614,0.66c0.167,0.023,0.325,0.088,0.458,0.199c1.975,1.656,4.499,2.57,7.104,2.57
			c2.336,0,4.571-0.721,6.461-2.084c1.018-0.863,2.3-1.347,3.648-1.347c3.195,0,5.809,2.661,5.924,5.978
			c0.019,0.074,0.028,0.151,0.028,0.23L42.453,45.245L42.453,45.245z M42.453,11.051c0,0.553-0.448,1-1,1c-0.553,0-1-0.447-1-1
			V8.682h-2.417c-0.552,0-1-0.447-1-1c0-0.553,0.448-1,1-1h3.417c0.552,0,1,0.447,1,1V11.051z"/>
		<path d="M36.501,34.537c-0.868,0-1.705,0.318-2.417,0.922c-2.294,1.657-4.934,2.508-7.692,2.508c-2.947,0-5.806-0.99-8.094-2.797
			c-0.064-0.02-0.126-0.047-0.185-0.082c-0.611-0.365-1.25-0.551-1.897-0.551c-2.167,0-3.929,1.889-3.929,4.208v5.5h28.167v-5.287
			c-0.017-0.067-0.024-0.14-0.024-0.213C40.43,36.426,38.667,34.537,36.501,34.537z"/>
		<path d="M26.37,30.014c5.881,0,10.667-4.785,10.667-10.666S32.251,8.682,26.37,8.682s-10.667,4.785-10.667,10.666
			S20.489,30.014,26.37,30.014z M19.635,18.67c0.373-0.406,1.005-0.432,1.413-0.058l4.098,3.774l6.989-7.598
			c0.375-0.406,1.006-0.434,1.414-0.06c0.405,0.374,0.432,1.007,0.059,1.413l-7.667,8.336c0,0,0,0.001-0.001,0.001
			c-0.197,0.214-0.466,0.322-0.736,0.322c-0.242,0-0.484-0.087-0.677-0.264c0-0.001,0-0.001-0.001-0.002l-4.833-4.451
			C19.287,19.709,19.26,19.076,19.635,18.67z"/>
	</g>
</g>
<g>
</g>
<g>
</g>
<g>
</g>
<g>
</g>
<g>
</g>
<g>
</g>
<g>
</g>
<g>
</g>
<g>
</g>
<g>
</g>
<g>
</g>
<g>
</g>
<g>
</g>
<g>
</g>
<g>
</g>
</svg>
